<svg xmlns="http://www.w3.org/2000/svg"  viewBox="0 0 64 64" width="64px" height="64px"><path d="M 30.917969 4 C 15.478969 4 2.9179688 16.561 2.9179688 32 C 2.9179688 47.439 15.478969 60 30.917969 60 L 33.917969 60 C 49.356969 60 61.917969 47.439 61.917969 32 C 61.917969 16.561 49.356969 4 33.917969 4 L 30.917969 4 z M 33.917969 8 C 47.150969 8 57.917969 18.766 57.917969 32 C 57.917969 45.234 47.150969 56 33.917969 56 C 20.684969 56 9.9179688 45.234 9.9179688 32 C 9.9179688 18.766 20.684969 8 33.917969 8 z M 32 15 L 32 19 L 36 19 L 36 15 L 32 15 z M 32 23 L 32 49 L 36 49 L 36 23 L 32 23 z"/></svg>